<svg id="그룹_17" data-name="그룹 17" xmlns="http://www.w3.org/2000/svg" width="86.819" height="76.567" viewBox="0 0 86.819 76.567">
  <g id="그룹_5" data-name="그룹 5" transform="translate(0.199 70.881)">
    <path id="패스_8" data-name="패스 8" d="M1044.362,667.162h-2.068v5.41h1.145V671.11h.923a1.988,1.988,0,1,0,0-3.948Zm-.054,2.944h-.869v-1.94h.869c.719,0,1.132.351,1.132.963S1045.028,670.106,1044.308,670.106Z" transform="translate(-1042.294 -667.021)" fill="#fff"/>
    <path id="패스_9" data-name="패스 9" d="M1072.746,670.6a1.67,1.67,0,0,0,.98-1.6c0-1.134-.831-1.84-2.169-1.84h-2.169v5.41h1.146V670.84h1.04l1.064,1.731h1.325l-1.258-1.95Zm-1.243-.765h-.97v-1.671h.97c.685,0,1.078.3,1.078.835S1072.188,669.837,1071.5,669.837Z" transform="translate(-1060.612 -667.021)" fill="#fff"/>
    <path id="패스_10" data-name="패스 10" d="M1099.157,666.726a2.844,2.844,0,1,0,2.924,2.843A2.79,2.79,0,0,0,1099.157,666.726Zm0,4.662a1.819,1.819,0,1,1,1.779-1.819A1.74,1.74,0,0,1,1099.157,671.388Z" transform="translate(-1078.761 -666.726)" fill="#fff"/>
    <path id="패스_11" data-name="패스 11" d="M1130.427,667.162h-2.088v5.41h2.088a2.712,2.712,0,1,0,0-5.41Zm.02,4.406h-.963v-3.4h.963a1.7,1.7,0,1,1,0,3.4Z" transform="translate(-1100.467 -667.021)" fill="#fff"/>
    <path id="패스_12" data-name="패스 12" d="M1160.089,671.683a1.333,1.333,0,0,1-1.327-1.5v-3.018h-1.145v3.018a2.473,2.473,0,1,0,4.945,0v-3.018h-1.145v3.018A1.333,1.333,0,0,1,1160.089,671.683Z" transform="translate(-1120.26 -667.021)" fill="#fff"/>
    <path id="패스_13" data-name="패스 13" d="M1189.65,671.368a1.8,1.8,0,0,1,0-3.6,1.467,1.467,0,0,1,1.507.943h1.159a2.575,2.575,0,0,0-2.692-1.987,2.843,2.843,0,1,0,0,5.686,2.693,2.693,0,0,0,2.748-2.061h-1.159A1.6,1.6,0,0,1,1189.65,671.368Z" transform="translate(-1139.942 -666.726)" fill="#fff"/>
    <path id="패스_14" data-name="패스 14" d="M1218.226,672.572h1.145v-4.406h1.785v-1h-4.716v1h1.785Z" transform="translate(-1160.031 -667.021)" fill="#fff"/>
    <rect id="사각형_4" data-name="사각형 4" width="1.145" height="5.41" transform="translate(65.611 0.141)" fill="#fff"/>
    <path id="패스_15" data-name="패스 15" d="M1265.36,666.726a2.844,2.844,0,1,0,2.924,2.843A2.79,2.79,0,0,0,1265.36,666.726Zm0,4.662a1.819,1.819,0,1,1,1.779-1.819A1.74,1.74,0,0,1,1265.36,671.388Z" transform="translate(-1191.127 -666.726)" fill="#fff"/>
    <path id="패스_16" data-name="패스 16" d="M1298.308,670.395l-.072-.086-2.73-3.287h-.965v5.41h1.145v-3.44l.072.086,2.73,3.286h.965v-5.41h-1.145Z" transform="translate(-1212.832 -666.881)" fill="#fff"/>
  </g>
  <g id="그룹_9" data-name="그룹 9">
    <g id="그룹_8" data-name="그룹 8">
      <g id="그룹_6" data-name="그룹 6">
        <path id="패스_17" data-name="패스 17" d="M1077.061,447.907h-35.38l10.3,10.3h20.73l8.87,8.87-8.87,8.87h-9.254V463.109h-10.3v23.14h23.823l19.171-19.171Z" transform="translate(-1041.681 -447.907)" fill="#fff"/>
        <path id="패스_18" data-name="패스 18" d="M1182.976,447.907h-24.117l10.3,10.3h9.549l8.87,8.87-8.87,8.87h-9.689l-18.112,18.327h14.484l7.931-8.025h9.653l19.171-19.171Z" transform="translate(-1115.527 -447.907)" fill="#fff"/>
      </g>
      <g id="그룹_7" data-name="그룹 7" transform="translate(0.199 51.433)">
        <path id="패스_19" data-name="패스 19" d="M1042.294,606.688v14.738h10.563l2.715-2.715V609.4l-2.715-2.715Zm9.919,10.632-.747.747h-5.813v-8.021h5.813l.747.748Z" transform="translate(-1042.294 -606.688)" fill="#fff"/>
        <path id="패스_20" data-name="패스 20" d="M1097.2,606.688h-3.358v14.738h3.358v-3.945h7.091l2.715-2.715V609.4l-2.715-2.715Zm6.447,6.687-.747.747h-5.7v-4.076h5.7l.747.748Z" transform="translate(-1077.147 -606.688)" fill="#fff"/>
        <path id="패스_21" data-name="패스 21" d="M1226.38,615.46l-6.9-8.772h-3.018v14.738h3.359v-8.873l6.98,8.873h2.939V606.688h-3.359Z" transform="translate(-1160.044 -606.688)" fill="#fff"/>
        <rect id="사각형_5" data-name="사각형 5" width="3.359" height="14.738" transform="translate(49.41)" fill="#fff"/>
        <path id="패스_22" data-name="패스 22" d="M1149.127,606.688h-3.359v14.738h12.244v-3.359h-8.885Z" transform="translate(-1112.251 -606.688)" fill="#fff"/>
        <path id="패스_23" data-name="패스 23" d="M1281.991,610.046v-3.359h-13.278v14.738h13.278v-3.359h-9.919v-2.6h9.407v-2.881h-9.407v-2.539Z" transform="translate(-1195.37 -606.688)" fill="#fff"/>
      </g>
    </g>
  </g>
</svg>
